<?xml version="1.0" encoding="UTF-8" standalone="no"?>
<!-- Created with Inkscape (http://www.inkscape.org/) -->

<svg
   xmlns:dc="http://purl.org/dc/elements/1.1/"
   xmlns:cc="http://creativecommons.org/ns#"
   xmlns:rdf="http://www.w3.org/1999/02/22-rdf-syntax-ns#"
   xmlns:svg="http://www.w3.org/2000/svg"
   xmlns="http://www.w3.org/2000/svg"
   xmlns:sodipodi="http://sodipodi.sourceforge.net/DTD/sodipodi-0.dtd"
   xmlns:inkscape="http://www.inkscape.org/namespaces/inkscape"
   width="26.458334mm"
   height="25.021687mm"
   viewBox="0 0 26.458334 25.021687"
   version="1.1"
   id="svg8"
   inkscape:version="0.92.3 (2405546, 2018-03-11)"
   sodipodi:docname="Excel.svg">
  <defs
     id="defs2" />
  <sodipodi:namedview
     id="base"
     pagecolor="#ffffff"
     bordercolor="#666666"
     borderopacity="1.0"
     inkscape:pageopacity="0.0"
     inkscape:pageshadow="2"
     inkscape:zoom="1.8737012"
     inkscape:cx="53.6767"
     inkscape:cy="54.052141"
     inkscape:document-units="mm"
     inkscape:current-layer="layer1"
     showgrid="false"
     fit-margin-top="0"
     fit-margin-left="0"
     fit-margin-right="0"
     fit-margin-bottom="0"
     inkscape:pagecheckerboard="true"
     inkscape:window-width="606"
     inkscape:window-height="405"
     inkscape:window-x="690"
     inkscape:window-y="221"
     inkscape:window-maximized="0" />
  <metadata
     id="metadata5">
    <rdf:RDF>
      <cc:Work
         rdf:about="">
        <dc:format>image/svg+xml</dc:format>
        <dc:type
           rdf:resource="http://purl.org/dc/dcmitype/StillImage" />
        <dc:title></dc:title>
      </cc:Work>
    </rdf:RDF>
  </metadata>
  <g
     inkscape:label="Layer 1"
     inkscape:groupmode="layer"
     id="layer1"
     transform="translate(-91.631373,-179.25948)">
    <g
       transform="matrix(0.40983612,0,0,0.40983612,63.709175,128.56075)"
       id="layer1-8"
       inkscape:label="Layer 1">
      <path
         inkscape:connector-curvature="0"
         id="path34"
         d="m 86.188021,179.9667 -16.6026,-2.94955 v -23.0236 -23.0236 l 16.33802,-2.87134 c 8.98591,-1.57923 16.665439,-2.93266 17.065619,-3.00762 l 0.72761,-0.13629 0.004,2.34818 c 0.002,1.2915 0.11686,2.52677 0.25474,2.74505 0.21553,0.3412 2.10686,0.41544 13.48051,0.52917 12.24462,0.12244 13.26497,0.16747 13.70202,0.60476 0.44577,0.44601 0.47222,1.72338 0.47222,22.81086 0,21.08748 -0.0264,22.36485 -0.47222,22.81087 -0.43705,0.43728 -1.4574,0.48232 -13.70202,0.60476 -11.37365,0.11373 -13.26498,0.18797 -13.48051,0.52916 -0.13788,0.21829 -0.25252,1.43868 -0.25474,2.71198 -0.004,2.03624 -0.0598,2.31219 -0.46708,2.29093 -0.25466,-0.0133 -7.934189,-1.35147 -17.065619,-2.97372 z"
         style="fill:#ffffff;stroke-width:0.26458332" />
      <path
         inkscape:connector-curvature="0"
         id="path47"
         d="M 86.187971,181.51842 68.130155,178.30691 V 154.22436 130.1418 l 17.925516,-3.14866 c 9.85904,-1.73177 18.133879,-3.20268 18.388539,-3.2687 0.42129,-0.10921 0.46303,0.157 0.46303,2.95354 v 3.07357 h 12.95213 c 8.92883,0 13.1524,0.0913 13.59686,0.29376 0.3546,0.16156 0.77693,0.58388 0.9385,0.93849 0.20796,0.45643 0.29375,7.24436 0.29375,23.2417 0,15.99735 -0.0858,22.78528 -0.29375,23.24171 -0.16157,0.3546 -0.5839,0.77692 -0.9385,0.93849 -0.44446,0.20251 -4.66803,0.29376 -13.59686,0.29376 h -12.95213 v 3.04271 c 0,2.27243 -0.0837,3.03575 -0.33073,3.01523 -0.1819,-0.0151 -8.456749,-1.47265 -18.388539,-3.23898 z M 130.57182,154.2255 v -22.35729 h -12.83229 -12.83229 v 2.11667 2.11667 h 4.36562 4.36563 v 2.77812 2.77813 h -4.36563 -4.36562 v 1.05833 1.05833 h 4.36562 4.36563 v 2.77813 2.77812 h -4.36563 -4.36562 v 1.05834 1.05833 h 4.36562 4.36563 v 2.77812 2.77813 h -4.36563 -4.36562 v 1.05833 1.05833 h 4.36562 4.36563 v 2.77813 2.77812 h -4.36563 -4.36562 v 1.05834 1.05833 h 4.36562 4.36563 v 2.64583 2.64584 h -4.36563 -4.36562 v 2.24896 2.24895 h 12.83229 12.83229 z m -14.81667,15.21354 v -2.64583 h 5.15938 5.15937 v 2.64583 2.64584 h -5.15937 -5.15938 z m 0,-7.54062 v -2.77813 h 5.15938 5.15937 v 2.77813 2.77812 h -5.15937 -5.15938 z m 0,-7.67292 v -2.77812 h 5.15938 5.15937 v 2.77812 2.77813 h -5.15937 -5.15938 z m 0,-7.67291 v -2.77813 h 5.15938 5.15937 v 2.77813 2.77812 h -5.15937 -5.15938 z m 0,-7.67292 v -2.77812 h 5.15938 5.15937 v 2.77812 2.77813 h -5.15937 -5.15938 z m -25.145029,20.98868 c -1.44992,-2.93556 -2.63622,-5.47909 -2.63622,-5.65229 0,-0.17321 1.14335,-2.66055 2.54078,-5.52742 1.39743,-2.86686 2.49875,-5.23596 2.4474,-5.26464 -0.0514,-0.0287 -1.05283,-0.0128 -2.22548,0.0354 l -2.13209,0.0876 -1.38926,3.26159 c -0.76409,1.79388 -1.48662,3.60123 -1.60561,4.01634 -0.195628,0.68244 -0.235077,0.70405 -0.411742,0.22558 -0.107462,-0.29104 -0.746854,-1.98768 -1.420871,-3.77031 l -1.225486,-3.24114 -1.852881,0.004 c -1.019085,0.002 -1.997291,0.0958 -2.173791,0.20798 -0.231859,0.14734 0.306097,1.56735 1.938611,5.11725 l 2.25952,4.91331 -2.535247,5.06516 -2.535247,5.06516 1.522678,0.004 c 0.837472,0.002 1.790966,0.0755 2.118875,0.16338 0.530948,0.14228 0.693329,-0.0536 1.483719,-1.78955 0.488137,-1.07213 1.222801,-2.80861 1.632586,-3.85886 l 0.745064,-1.90953 0.722482,1.77724 c 0.39737,0.97749 1.12442,2.72975 1.61567,3.89391 l 0.89318,2.11667 1.18263,0.1587 c 0.65045,0.0873 1.74386,0.17658 2.4298,0.19844 l 1.24715,0.0397 z"
         style="fill:#1d6f42;stroke-width:0.26458332" />
    </g>
  </g>
</svg>
